
Format : MPEG-4
Format profile : Base Media / Version 2
Codec ID : mp42
File size : 175 MiB
Duration : 42mn 32s
Overall bit rate : 575 Kbps
Encoded date : UTC 2010-11-18 20:04:48
Tagged date : UTC 2010-11-18 20:05:15
Writing application : mp4creator 1.6.1d

Video
ID : 1
Format : AVC
Format/Info : Advanced Video Codec
Format profile : Baseline@L1.3
Format settings, CABAC : No
Format settings, ReFrames : 1 frame
Codec ID : avc1
Codec ID/Info : Advanced Video Coding
Duration : 42mn 32s
Bit rate mode : Variable
Bit rate : 511 Kbps
Width : 480 pixels
Height : 272 pixels
Display aspect ratio : 16:9
Original display aspect ratio : 16:9
Frame rate mode : Constant
Frame rate : 24.000 fps
Resolution : 24 bits
Colorimetry : 4:2:0
Scan type : Progressive
Bits/(Pixel*Frame) : 0.163
Stream size : 156 MiB (89%)
Encoded date : UTC 2010-11-18 20:04:48
Tagged date : UTC 2010-11-18 20:05:08

Audio
ID : 2
Format : AAC
Format/Info : Advanced Audio Codec
Format version : Version 4
Format profile : LC
Format settings, SBR : Yes
Format settings, PS : No
Codec ID : 40
Duration : 42mn 32s
Bit rate mode : Variable
Bit rate : 62.7 Kbps
Maximum bit rate : 150 Kbps
Channel(s) : 2 channels
Channel positions : L R
Sampling rate : 48.0 KHz
Resolution : 16 bits
Stream size : 19.1 MiB (11%)
Encoded date : UTC 2010-11-18 20:05:08
Tagged date : UTC 2010-11-18 20:05:15

Law & Order: Los Angeles is an American police procedural-legal television drama series set in Los Angeles, where it is produced. Created and produced by Dick Wolf and developed by Blake Masters, it premiered on NBC on September 29, 2010, as a spin-off of Wolf's successful crime drama Law & Order.
 
http://www.imdb.com/title/tt1657081/

screens
 
http://img842.imageshack.us/img842/2817/laworderlah264vicemp4sn.jpg 
http://img132.imageshack.us/img132/2817/laworderlah264vicemp4sn.jpg